<svg enable-background="new 0 0 200 40.9" height="143.178211" viewBox="0 0 200 40.9"
    width="698.430296" xmlns="http://www.w3.org/2000/svg">
  <path
      d="m20.4 40.5c10.9 0 19.8-8.9 19.8-20 0-11-8.9-20-19.8-20s-19.8 8.9-19.8 20c0 11 8.8 20 19.8 20"
      fill="#fff"/>
  <path
      d="m13.8 11.4c-1 1-2 2-3 3.1 3.1 3.4 6.4 6.7 9.7 10 3.3-3.2 6.6-6.6 9.7-10-1-1-1.9-2.1-3-3-2.3 2.1-4.5 4.3-6.7 6.5-2.2-2.2-4.5-4.4-6.7-6.6m3.1-2.7c1.2 1 2.4 2.1 3.6 3.1 1.2-1.1 2.4-2.1 3.6-3.1-1.2-1-2.4-1.9-3.6-2.8-1.3.9-2.5 1.8-3.6 2.8m-8.8 8.9c-.8 1-1.5 1.9-2.2 2.9 4 5.6 9 10.5 14.6 14.4 5.5-3.9 10.5-8.8 14.5-14.4-.7-1-1.4-2-2.2-2.9-3.7 4.6-7.9 8.8-12.3 12.7-4.5-3.9-8.7-8.1-12.4-12.7m-5.6 2.9c0-9.7 8.2-18 17.9-18s17.9 8.3 17.9 18-8.2 18-17.9 18c-9.8 0-17.9-8.3-17.9-18m-2.5 0c0-11.3 9.1-20.5 20.4-20.5 11.2 0 20.4 9.2 20.4 20.5s-9.1 20.5-20.4 20.5c-11.3-.1-20.4-9.2-20.4-20.5m1.4 0c0 10.5 8.5 19.1 19 19.1s19-8.5 19-19.1c0-10.5-8.5-19.1-19-19.1-10.5 0-19 8.5-19 19.1"
      fill="#21325B"/>
  <path
      d="m181.5 16.2.3 2.5s-2.2-1.1-4.9-.9c-1.6.1-2.6.6-3.5 1.3v12.9h-3.6v-16l3.6-.5v1.6c.7-.5 1.9-1.3 3.6-1.4 2.1 0 4.1.4 4.5.5m-94.8 14.5c1.4-.1 3.8-.4 3.8-2.7 0-.8-.5-1.4-1.4-1.9-1.2-.7-2.7-1.2-3.2-1.5-2.4-1-4.9-2.1-4.9-4.5 0-2.7 2-4.6 6.9-4.6 2.2 0 4.7.6 4.7.6v2.5s-2.8-1.4-5.1-1.4c-1.7 0-3.1.5-3.1 2 0 .8.5 1.3 1.4 1.8 1.2.7 2.7 1.1 3.3 1.4 2.4.9 4.9 2.2 4.9 5 0 3.5-3.3 5-7.5 5-3.4 0-5.5-.6-5.5-.6v-1.3c-.2-.1 3.4.3 5.7.2m24.1-12s-2.7-1.4-5-1.4c-4.4 0-5.2 3.2-5.2 5.1 0 2.1.1 4.1 1.5 5.7 1.3 1.5 4.1 2.7 6.7 2.7 1.1 0 2.5-.2 2.5-.2v1.3s-1.9.6-4.6.6c-7.3 0-10-3.7-10-8.9 0-4.3 2.2-7.9 8.2-7.9 3.6 0 6 .6 6 .6v2.4zm51.7 2.5c0-2-1.3-3.9-3.6-3.9-3.3 0-4 2.6-4.2 3.9zm3.5 10.5s-1.9.7-5.3.7c-6.1 0-9.7-3.2-9.7-8.9 0-4.9 2.3-7.9 8.4-7.9 4 0 7.1 2.3 7.1 6.4v.7h-11.9c0 1.7.3 3.9 1.7 5.5 1.4 1.5 3.9 2.5 6.6 2.5 1.3 0 3.1-.5 3.1-.5zm-33.6-15.3 3.6-.5 5.8 12 5.5-12h2.7l-7.7 16.4h-2.2zm-10.1 14.3c4.4 0 4.7-4 4.7-6.6 0-2.8-.7-6.8-4.8-6.8-4.5 0-4.8 3.9-4.8 6.8.1 2.5.9 6.6 4.9 6.6m-8.7-6.6c0-5 2.5-8.5 8.6-8.5 5.5 0 8.8 3.3 8.8 8.4 0 5.2-2.8 8.3-8.7 8.3-5.6.1-8.7-3.4-8.7-8.2m-41.5-13.5c0-1.2 1.1-2.1 2.5-2.1 1.3 0 2.5.9 2.5 2.1s-1.2 2.1-2.5 2.1c-1.4 0-2.5-.9-2.5-2.1m.9 5.4 3.6-.5v16.5h-3.6zm-17.4-7.1c3.7 0 7.3.9 9.8 2.8 2.7 2.1 4.2 5.4 4.2 8.7s-1.4 6.6-4.1 8.7c-2.5 1.9-6.1 2.8-9.8 2.8h-6.8v-23zm-2.8 1.8v19.6c2.6 0 5.1-.2 6.8-1 3.7-1.7 5.6-5.1 5.6-8.9 0-3.7-1.9-7.2-5.6-8.9-1.7-.6-4.1-.8-6.8-.8m131 5.3 3.5-.5 4.7 11.8 5.4-11.8h2.6l-7.6 16.7c-1.3 2.7-3.5 6.2-7.5 6.2h-.6v-2.4c4 .3 5.7-2.8 5.7-4 0-.9-.5-1.9-.5-1.9z"
      fill="#21325B"/>
</svg>
