<?xml version="1.0" encoding="UTF-8"?>
<svg width="70px" height="25px" viewBox="0 0 70 25" version="1.1" xmlns="http://www.w3.org/2000/svg"
    xmlns:xlink="http://www.w3.org/1999/xlink">
  <title>header-logo</title>
  <defs>
    <polygon id="path-1" points="0 0 39 0 39 20 0 20"></polygon>
  </defs>
  <g id="Current-Header---Rsponsive" stroke="none" stroke-width="1" fill="none" fill-rule="evenodd">
    <g id="PC-Med-1600-Current-Header---Expected-Result"
        transform="translate(-160.000000, -5.000000)">
      <g id="navigation/med/current-header/home" transform="translate(0.500000, 0.000000)">
        <g id="header-logo" transform="translate(160.000000, 5.000000)">
          <g id="primary-logo-old">
            <path
                d="M12.4999244,0 C19.4022788,0 25,5.59741886 25,12.4999244 C25,19.40243 19.4022788,25 12.4999244,25 C5.59757005,25 0,19.40243 0,12.4999244 C0,5.59741886 5.59757005,0 12.4999244,0"
                id="old-logo-fill-1" fill="#FFFF"></path>
            <path
                d="M2.13414634,12.5689906 C2.13414634,6.63348136 6.8416499,1.82926829 12.6470497,1.82926829 C18.4632281,1.82926829 23.1707317,6.63348136 23.1707317,12.5689906 C23.1707317,12.9353992 23.1602568,13.301343 23.1180533,13.6674418 C21.9255789,18.4290492 17.6923325,21.9512195 12.6470497,21.9512195 C7.61209011,21.9512195 3.37945098,18.4290492 2.18682472,13.6674418 C2.14492491,13.301343 2.13414634,12.9353992 2.13414634,12.5689906"
                id="old-logo-fill-2" fill="#21325B"></path>
            <path
                d="M15.4758183,13.1308466 L12.5050388,10.1188021 L12.3484603,9.97035865 C11.1666764,10.2455817 10.0477645,10.7339347 9.04361661,11.3702736 L9.9951204,12.3355375 C10.4448511,12.2932776 10.9049602,12.3141787 11.3444629,12.3567437 C11.511871,12.9084102 11.6269359,13.4706036 11.7107151,14.0538506 L13.122328,15.507315 L15.4758183,13.1308466 Z M13.8751381,10.6489573 L15.9044914,12.696043 L17.0545385,11.5293964 C16.0294834,11.0202948 14.9104211,10.6703161 13.7393164,10.5113458 L13.8751381,10.6489573 Z M9.14830308,12.3460643 L6.9315369,10.0972908 C6.31424769,10.0231453 5.69710889,9.98042779 5.05921329,9.98042779 C3.88795815,9.98042779 2.74798862,10.1079702 1.66051274,10.3732766 C1.69179836,10.161062 1.73376319,9.94884732 1.77572803,9.74731206 C3.57419955,8.8031018 5.58219443,8.21970221 7.71533176,8.08193814 L8.27020015,8.65435321 L9.02255898,9.40801272 C10.6224872,8.63345213 12.4110315,8.19849601 14.3038111,8.19849601 C14.1995759,8.06103706 14.094739,7.91198334 13.9902029,7.77452439 C13.6346299,7.75331819 13.2793577,7.73180685 12.9137071,7.73180685 C11.6789783,7.73180685 10.4866655,7.91198334 9.3676032,8.26241976 L8.68789317,7.57283657 C8.21740568,7.53057671 7.73623897,7.49869112 7.24499468,7.49869112 C5.48788635,7.46680552 3.78312126,7.74248624 2.19342105,8.2834734 C2.27735072,8.06103706 2.36082916,7.85934923 2.44445801,7.64698202 C3.71017163,6.71360371 5.11140611,5.98191322 6.61762789,5.48303335 L6.3040197,5.1544134 C8.15513528,4.18930205 10.267215,3.65853659 12.4948108,3.65853659 C13.8236973,3.65853659 15.0987364,3.83917077 16.3119564,4.19967631 C16.7510079,4.64485414 17.1696034,5.12268036 17.556462,5.62125511 C17.6819053,5.52559833 17.8178774,5.44062093 17.9643783,5.34542184 C19.6270281,5.84369146 21.1752147,6.62877887 22.5552412,7.64698202 C22.6390204,7.85934923 22.7226493,8.06103706 22.8062781,8.2834734 C21.5301861,7.84851728 20.1815957,7.58321083 18.7905892,7.50891282 C18.9366389,7.78489865 19.0831398,8.05035767 19.208583,8.33641264 C20.6310256,8.61224592 21.9802176,9.08976702 23.2247232,9.74731206 C23.2665376,9.94884732 23.3083521,10.161062 23.3399385,10.3732766 C22.2413322,10.1079702 21.1123427,9.98042779 19.9409371,9.98042779 L19.8780651,9.98042779 C19.9722227,10.2455817 20.0557012,10.5113458 20.13933,10.7870265 C21.3003572,10.9885618 22.4194195,11.3280137 23.4652314,11.7837183 C23.4756098,11.9004288 23.4756098,12.0064598 23.4756098,12.1233228 L23.4756098,12.229659 C22.9317214,12.1658878 22.3774547,12.1341548 21.8128095,12.1341548 C20.7250328,12.1341548 19.6688425,12.2507126 18.6440883,12.4733015 C18.3094225,12.2507126 17.9643783,12.0281237 17.6089557,11.8264359 L15.5379383,13.9371402 L13.4461642,16.058829 L13.6448579,21.2775397 C13.2686785,21.3201046 12.8923487,21.3414634 12.4948108,21.3414634 C12.118481,21.3414634 11.7313215,21.3201046 11.3652197,21.2775397 L11.4596782,19.0713311 L11.4909638,18.2339147 L7.18227304,13.8631473 L7.09849378,13.8736741 C6.31424769,13.915934 5.55045758,14.032797 4.81855473,14.2132786 C4.73492587,14.0431712 4.66167542,13.8736741 4.59895379,13.6931925 C5.13246374,13.406985 5.69710889,13.1523579 6.28266125,12.9509752 L5.68673049,12.3460643 C5.49826475,12.3141787 5.31025025,12.2825982 5.12178451,12.261392 C4.91256198,12.229659 4.69311145,12.2081476 4.48418974,12.187094 C4.05536626,12.1552084 3.62699402,12.1341548 3.18704009,12.1341548 C2.62254535,12.1341548 2.06827859,12.1658878 1.52439024,12.229659 L1.52439024,12.1233228 C1.52439024,12.0064598 1.52439024,11.9004288 1.53461823,11.7837183 C3.04084001,11.1264784 4.68273305,10.7232553 6.40825494,10.60685 L8.23831289,12.4629273 C8.54169309,12.4096829 8.84492288,12.3677282 9.14830308,12.3460643 L9.14830308,12.3460643 Z M11.6269359,14.8598391 L11.1349395,14.3621797 C10.1523005,14.0538506 9.10618783,13.8843535 8.02893994,13.8631473 L11.5222494,17.4061098 L11.6269359,14.8598391 L11.6269359,14.8598391 Z"
                id="old-logo-fill-3" fill="#FFFFFF"></path>
            <path
                d="M2.14224628,13.7887503 C3.31587137,18.1401343 7.50704507,21.3594958 12.4946503,21.3594958 C17.4925028,21.3594958 21.6836765,18.1401343 22.8570002,13.7887503 C23.0664685,13.7591578 23.2763889,13.7391934 23.4756098,13.7195122 C22.9933807,19.0163013 18.2673847,23.1707317 12.4946503,23.1707317 C6.73186178,23.1707317 2.00616726,19.0163013 1.52439024,13.7195122 C1.72330975,13.7391934 1.93262732,13.7591578 2.14224628,13.7887503"
                id="old-logo-fill-4" fill="#FFFF"></path>
          </g>
          <g id="FNB" transform="translate(30.000000, 5.000000)">
            <mask id="mask-2" fill="white">
              <use xlink:href="#path-1"></use>
            </mask>
            <g id="Clip-2"></g>
            <path
                d="M2.70059606,17.682398 L3.40288506,17.682398 L3.40288506,17.1696429 L2.70059606,17.1696429 L2.70059606,17.682398 Z M3.40288506,18.0344388 L3.40288506,19.9540816 L2.70059606,19.9540816 L2.70059606,18.2436224 L3.40288506,18.0344388 Z M8.35777519,18.627551 L8.35777519,18.9897959 C8.37385815,19.4298469 8.4596339,19.4987245 8.78397348,19.4987245 C8.87376997,19.4987245 9.00109336,19.4617347 9.1096533,19.4260204 L9.1096533,19.8839286 C8.92067859,19.9540816 8.69551723,20 8.52530596,20 C7.75600466,20 7.65816668,19.6607143 7.65816668,19.0816327 L7.65816668,17.6505102 L8.35777519,17.4413265 L8.35777519,18.1173469 L9.08016788,18.1173469 L9.08016788,18.627551 L8.35777519,18.627551 Z M5.42129581,19.4119898 C5.70810849,19.494898 6.04451028,19.565051 6.28709484,19.565051 C6.47204881,19.565051 6.59401122,19.5140306 6.59401122,19.4260204 C6.59401122,19.3788265 6.53370014,19.3456633 6.49081226,19.3227041 C6.44926463,19.3048469 6.3902938,19.2857143 6.31658026,19.2691327 C6.20936056,19.244898 6.09275914,19.2219388 5.9841992,19.192602 C5.87429902,19.1619898 5.77110006,19.1288265 5.67728283,19.0880102 C5.50171058,19 5.38108842,18.869898 5.38108842,18.6454082 C5.38108842,18.2844388 5.80862695,18.057398 6.39565478,18.057398 C6.71463337,18.057398 7.01082778,18.1173469 7.21186471,18.1607143 L7.21186471,18.5918367 C6.9505167,18.5395408 6.67710648,18.497449 6.49617324,18.497449 C6.32194124,18.497449 6.19997884,18.5357143 6.19997884,18.6377551 C6.19997884,18.6798469 6.24688745,18.7117347 6.28709484,18.7321429 C6.32730223,18.7487245 6.38359257,18.7627551 6.45194512,18.7767857 C6.95855818,18.8788265 7.4062004,19.0178571 7.4062004,19.3915816 C7.4062004,19.7959184 7.01752901,20 6.35946813,20 C5.9841992,20 5.66254012,19.9209184 5.42129581,19.8520408 L5.42129581,19.4119898 Z M5.22696011,18.7015306 C5.00715974,18.7193878 4.68013967,18.7729592 4.51796988,18.8596939 L4.50456742,19.9540816 L3.81300039,19.9540816 L3.81300039,18.432398 C3.9845519,18.4668367 4.27806581,18.4630102 4.52065037,18.3482143 C4.70694459,18.2653061 4.98035481,18.1160714 5.22696011,18.0714286 L5.22696011,18.7015306 Z M0.699608507,19.9540816 L0,19.9540816 L0,17.8877551 C0,17.4961735 0.316298099,17.1683673 1.0011639,17.1683673 L2.31996614,17.1683673 L2.31862589,17.6913265 L1.03467005,17.6913265 C0.853736818,17.6913265 0.735795154,17.7640306 0.699608507,17.8877551 L0.699608507,18.2806122 L2.21944768,18.2806122 L2.21944768,18.8596939 L0.699608507,18.8596939 L0.699608507,19.9540816 Z M26.1079956,18.432398 L26.1079956,19.2997449 L26.1079956,19.9540816 C26.0530455,19.9604592 26.0021162,19.9642857 25.9498466,19.9642857 C25.8171622,19.9642857 25.6616936,19.9477041 25.5022044,19.8112245 L25.4713787,19.817602 C25.3199309,19.9579082 25.0840475,20 24.8937326,20 C24.210207,20 23.8604028,19.6109694 23.8604028,19.0357143 C23.8604028,18.4604592 24.210207,18.0714286 24.8937326,18.0714286 C25.1564208,18.0714286 25.364159,18.1734694 25.5089056,18.2436224 C25.6295277,18.3048469 25.8345854,18.4183673 26.1079956,18.432398 L26.1079956,18.432398 Z M25.4043664,18.7028061 C25.3078687,18.6237245 25.1859063,18.5765306 25.0290975,18.5765306 C24.6886749,18.5765306 24.5613515,18.7806122 24.5613515,19.0357143 C24.5613515,19.2895408 24.6886749,19.494898 25.0290975,19.494898 C25.1859063,19.494898 25.3078687,19.4579082 25.3949847,19.3877551 L25.4043664,18.7028061 Z M12.995027,19.9540816 C12.8140937,19.9540816 12.6492435,19.8839286 12.5272811,19.7704082 L11.6172539,18.9030612 L11.1615702,18.4668367 C11.0436285,18.3545918 10.9498113,18.2334184 10.9498113,18.2334184 L10.9189856,18.2436224 L10.9189856,19.9540816 L10.2716467,19.9540816 L10.2716467,17.1683673 L10.4874264,17.1683673 C10.6696999,17.1683673 10.8358904,17.2385204 10.9551723,17.3520408 L11.8678799,18.2193878 L12.3208832,18.6556122 C12.4374846,18.7691327 12.532642,18.8890306 12.532642,18.8890306 L12.5674884,17.1683673 L13.2108066,17.1683673 L13.2108066,19.9540816 L12.995027,19.9540816 Z M16.6780235,18.627551 L16.6780235,18.9897959 C16.6954467,19.4298469 16.7825627,19.4987245 17.1042218,19.4987245 C17.198039,19.4987245 17.3240221,19.4617347 17.4312418,19.4260204 L17.4312418,19.8839286 C17.2449476,19.9540816 17.0144253,20 16.8468945,20 C16.0735725,20 15.978415,19.6607143 15.978415,19.0816327 L15.978415,17.6505102 L16.6780235,17.4413265 L16.6780235,18.1173469 L17.4004162,18.1173469 L17.4004162,18.627551 L16.6780235,18.627551 Z M20.007195,20 C19.2043875,20 18.8492223,19.6109694 18.8492223,19.0357143 C18.8492223,18.4604592 19.2043875,18.0714286 20.007195,18.0714286 C20.8100025,18.0714286 21.1718689,18.4604592 21.1718689,19.0357143 C21.1718689,19.6109694 20.8100025,20 20.007195,20 L20.007195,20 Z M20.007195,18.5765306 C19.6667725,18.5765306 19.5515113,18.7844388 19.5515113,19.0357143 C19.5515113,19.2895408 19.6667725,19.494898 20.007195,19.494898 C20.355659,19.494898 20.4695799,19.2895408 20.4695799,19.0357143 C20.4695799,18.7844388 20.355659,18.5765306 20.007195,18.5765306 L20.007195,18.5765306 Z M18.5141608,18.0344388 L18.5141608,19.9540816 L17.813212,19.9540816 L17.813212,18.2436224 L18.5141608,18.0344388 Z M22.1328255,19.9540816 L21.4305365,19.9540816 L21.4305365,18.432398 C21.7669382,18.4107143 21.9157056,18.317602 22.1743731,18.2257653 C22.3888125,18.1479592 22.6823264,18.0714286 22.8525377,18.0714286 C23.4234825,18.0714286 23.5883328,18.3367347 23.5883328,18.7028061 L23.5883328,19.9540816 L22.8873841,19.9540816 L22.8873841,18.8928571 C22.8873841,18.6734694 22.7573802,18.6096939 22.565725,18.6096939 C22.4491235,18.6096939 22.2976757,18.6556122 22.1515889,18.7219388 L22.1328255,19.9540816 Z M26.5033683,19.9540816 L26.5033683,17.2091837 L27.204317,17 L27.204317,19.9540816 L26.5033683,19.9540816 Z M15.6983035,18.432398 L15.6983035,19.2997449 L15.6983035,19.9540816 C15.6460339,19.9604592 15.5937643,19.9642857 15.542835,19.9642857 C15.4114908,19.9642857 15.2560223,19.9477041 15.0951927,19.8112245 L15.0643671,19.817602 C14.911579,19.9579082 14.6770359,20 14.486721,20 C13.8018552,20 13.4520509,19.6109694 13.4520509,19.0357143 C13.4520509,18.4604592 13.8018552,18.0714286 14.486721,18.0714286 C14.7507495,18.0714286 14.9571474,18.1734694 15.1005537,18.2436224 C15.2251966,18.3048469 15.4275738,18.4183673 15.6983035,18.432398 L15.6983035,18.432398 Z M14.9960145,18.7028061 C14.8995168,18.6237245 14.7775544,18.5765306 14.6220858,18.5765306 C14.2816633,18.5765306 14.1543399,18.7806122 14.1543399,19.0357143 C14.1543399,19.2895408 14.2816633,19.494898 14.6220858,19.494898 C14.7775544,19.494898 14.8995168,19.4579082 14.9879731,19.3877551 L14.9960145,18.7028061 Z M17.8413572,17.682398 L18.5436462,17.682398 L18.5436462,17.1696429 L17.8413572,17.1696429 L17.8413572,17.682398 Z M36.6088245,19.9540816 L35.9252989,19.9540816 L35.9252989,17.252551 L36.6088245,17.0433673 L36.6088245,18.7627551 C36.9170811,18.7806122 37.0296618,18.6989796 37.0886326,18.5918367 C37.1610059,18.4706633 37.1409022,18.2806122 37.0966741,18.1466837 L37.7922618,18.1466837 C37.9048425,18.4706633 37.8284485,18.8788265 37.4049307,19.0982143 L37.3700843,19.1160714 L38,19.9540816 L37.2226572,19.9540816 L36.7026417,19.2691327 L36.6088245,19.2691327 L36.6088245,19.9540816 Z M34.1494727,19.9540816 L33.448524,19.9540816 L33.448524,18.432398 C33.786266,18.4107143 33.9336931,18.317602 34.1937008,18.2257653 C34.4094805,18.1479592 34.7016541,18.0714286 34.8705252,18.0714286 C35.4387895,18.0714286 35.6049801,18.3367347 35.6049801,18.7028061 L35.6049801,19.9540816 L34.9040313,19.9540816 L34.9040313,18.8928571 C34.9040313,18.6734694 34.7726872,18.6096939 34.5823722,18.6096939 C34.4657708,18.6096939 34.314323,18.6556122 34.1695764,18.7219388 L34.1494727,19.9540816 Z M29.8379008,17.9706633 C29.8379008,17.7984694 29.7105774,17.6913265 29.490777,17.6913265 L29.039114,17.6913265 L29.039114,18.247449 L29.490777,18.247449 C29.7105774,18.247449 29.8379008,18.1415816 29.8379008,17.9706633 L29.8379008,17.9706633 Z M30.0831658,19.0880102 C30.0831658,18.8928571 29.9290375,18.752551 29.6623285,18.752551 L29.039114,18.752551 L29.039114,19.4260204 L29.6623285,19.4260204 C29.9290375,19.4260204 30.0831658,19.2895408 30.0831658,19.0880102 L30.0831658,19.0880102 Z M30.5267873,17.8877551 C30.5267873,18.1007653 30.4302896,18.2946429 30.2359539,18.4247449 L30.182344,18.4604592 L30.2453356,18.4834184 C30.6058618,18.6096939 30.7747328,18.8737245 30.7747328,19.1747449 C30.7747328,19.5982143 30.4262688,19.9540816 29.6944944,19.9540816 L28.3663104,19.9540816 L28.3663104,17.1683673 L29.5229429,17.1683673 C30.2104892,17.1683673 30.5267873,17.4961735 30.5267873,17.8877551 L30.5267873,17.8877551 Z M32.4714845,18.7028061 C32.3736465,18.6237245 32.2516841,18.5765306 32.0948753,18.5765306 C31.7531125,18.5765306 31.6298099,18.7806122 31.6298099,19.0357143 C31.6298099,19.2895408 31.7531125,19.494898 32.0948753,19.494898 C32.2516841,19.494898 32.3736465,19.4579082 32.4621028,19.3877551 L32.4714845,18.7028061 Z M33.171093,18.432398 L33.171093,19.2997449 L33.171093,19.9540816 C33.1201637,19.9604592 33.0678941,19.9642857 33.0156244,19.9642857 C32.8829401,19.9642857 32.7288118,19.9477041 32.5706627,19.8112245 L32.5358163,19.817602 C32.3843685,19.9579082 32.1498254,20 31.9581702,20 C31.2759849,20 30.9261807,19.6109694 30.9261807,19.0357143 C30.9261807,18.4604592 31.2759849,18.0714286 31.9581702,18.0714286 C32.2221987,18.0714286 32.4285966,18.1734694 32.5746835,18.2436224 C32.6979861,18.3048469 32.9003633,18.4183673 33.171093,18.432398 L33.171093,18.432398 Z"
                id="Fill-1" fill="#21325B" mask="url(#mask-2)"></path>
            <path
                d="M24.7868664,14 C23.9372643,14 23.1666318,13.6461538 22.6070381,13.0769231 L18.3699204,8.71468531 L16.2445538,6.52027972 C15.6985756,5.96223776 15.2642438,5.35384615 15.2642438,5.35384615 L15.1144742,5.4013986 L15.1144742,14 L12.0986594,14 L12.0986594,0 L13.1062003,0 C13.9558023,0 14.7291579,0.355244755 15.2887516,0.927272727 L19.5245078,5.29090909 L21.6485128,7.48391608 C22.194491,8.04195804 22.6329074,8.64895105 22.6329074,8.64895105 L22.7472769,8.61398601 L22.7799539,0 L25.7984918,0 L25.7984918,14 L24.7868664,14 Z M3.26361542,14 L0,14 L0,3.60979021 C0,1.65874126 1.47182656,0 4.67008798,0 L11.0979263,0 L11.0843109,2.63496503 L4.81849602,2.63496503 C3.97570172,2.63496503 3.42836196,2.9972028 3.26361542,3.60979021 L3.26361542,5.59020979 L10.4239631,5.59020979 L10.4239631,8.5048951 L3.26361542,8.5048951 L3.26361542,14 Z M37.841328,3.61258741 C37.841328,4.68671329 37.3892962,5.66293706 36.4825094,6.31748252 L36.2333473,6.5034965 L36.5274403,6.62097902 C38.2034981,7.24475524 39,8.57762238 39,10.0895105 C39,12.2083916 37.3647884,14 33.9636573,14 L27.6352116,14 L27.6352116,0.0041958042 L33.168517,0.0041958042 C36.3667784,0.0041958042 37.841328,1.65874126 37.841328,3.61258741 L37.841328,3.61258741 Z M35.7785924,9.64335664 C35.7785924,8.67272727 35.0556137,7.96923077 33.8043569,7.96923077 L30.7626728,7.96923077 L30.7626728,11.3482517 L33.8043569,11.3482517 C35.0556137,11.3482517 35.7785924,10.6727273 35.7785924,9.64335664 L35.7785924,9.64335664 Z M34.6199204,4.02937063 C34.6199204,3.17482517 34.0317344,2.63496503 33.0133012,2.63496503 L30.7626728,2.63496503 L30.7626728,5.42937063 L33.0133012,5.42937063 C34.0317344,5.42937063 34.6199204,4.89370629 34.6199204,4.02937063 L34.6199204,4.02937063 Z"
                id="Fill-3" fill="#21325B" mask="url(#mask-2)"></path>
          </g>
        </g>
      </g>
    </g>
  </g>
</svg>
